<svg xmlns="http://www.w3.org/2000/svg" viewBox="0 0 1264.99 550"><defs><style>.cls-1{fill:#eaeaea;}</style></defs><title>chige_background_logo</title><g id="レイヤー_2" data-name="レイヤー 2"><g id="レイヤー_1-2" data-name="レイヤー 1"><path class="cls-1" d="M436.58,338.3c8.22,20.77,16.35,41.59,24.73,62.29,2.23,5.5,2.25,10.26-.59,15.72-25,48.24-61.32,85-110.32,108.66-92.15,44.44-197.58,28.82-272.57-39.89-115.93-106.23-100.08-297,32.29-382,68.35-43.92,141.49-51.45,218.07-24.4,3.19,1.13,6.84,4.12,8.06,7.14,17.62,43.59,34.82,87.36,52.27,131,2.42,6.05-1.44,7.36-5.58,9Q328,247.54,273.14,269.3c-8.86,3.51-8.86,3.52-5.46,12.13,3.75,9.5,7.81,18.89,11.17,28.53,1.93,5.55,4.38,6.51,9.82,4.32,36.52-14.69,73.16-29.09,109.76-43.57,9.82-3.88,9.84-3.89,13.71,5.87Q424.38,307.42,436.58,338.3Z"/><path class="cls-1" d="M890.13,431.38l68.06-143.55c-6.67,1.69-11.9,3.2-17.22,4.32C880.25,305,818.8,269.53,799.48,210.59,780.25,151.9,808.15,87,863.66,61.44c57.29-26.43,124.69-6.36,156.67,47.18,5.83,9.76,9.85,20.68,14.08,31.31q39.07,98.15,77.84,196.43c3.13,7.92,3.13,7.94-4.42,10.93q-105,41.6-210.1,83.17c-2.07.82-4.21,1.44-6.32,2.16Z"/><path class="cls-1" d="M393.1,107.27c1.68,1,3.44,2,5,3.16Q537.33,213,676.43,315.75a24.48,24.48,0,0,1,7.77,9.67c7.4,17.66,14.13,35.59,21.38,53.31,2.07,5.05,1.11,7.61-4.1,9.66Q618.62,421,535.94,454c-6.89,2.76-8.4-.85-10.38-5.87Q474.79,319.6,423.88,191.16,409,153.48,394.07,115.79c-1-2.43-1.5-5-2.24-7.55Z"/><path class="cls-1" d="M1177.22,138.1l57.16,37.8c-8.36,5.83-15,11.43-22.46,15.52-54.52,29.83-122.69,4.4-144.65-53.71-18.51-49,4.44-105.81,51.62-127.85,48.73-22.77,106.4-4.87,132.61,41.08,7.73,13.54,11.77,28.11,13.37,43.56.65,6.32-1.31,9.64-7.38,12-24.06,9.18-47.93,18.84-71.87,28.32Z"/><path class="cls-1" d="M712.85,286.9c-10-25.32-19.87-50.71-30.2-75.91-2.49-6.06-1.16-8.63,4.77-10.85,17.13-6.43,34.11-13.24,51-20.17,5.12-2.09,7.82-1.6,10.06,4.13q30.12,77,60.83,153.71c2.09,5.23,1,7.54-4.14,9.51Q779,357.31,753,368c-5.54,2.3-7.88.81-9.93-4.51C733.18,337.9,723,312.42,712.85,286.9Z"/><path class="cls-1" d="M728.27,94.88a50.25,50.25,0,0,1-28.61,65.06c-26.1,10.23-55-2.62-65.35-29.1-9.91-25.24,3.2-55.17,28.38-64.78A50.52,50.52,0,0,1,728.27,94.88Z"/></g></g></svg>